# xmcd CD database file
#
# Track frame offsets:
#	150
#	13941
#	36045
#	57658
#
# Disc length: 1016 seconds
#
# Revision: 1
# Processed by: cddbd v1.5.2PL0 Copyright (c) Steve Scherf et al.
# Submitted via: CDex 1.70beta2
#
DISCID=3103f604
DTITLE=PE'Z - 起きて寝る -FUNNY DAY ＆ HARD NIGHT- BONUS DISC
DYEAR=2007
DGENRE=Jazz
TTITLE0=ハナフブキ　～花魁道中罷り通る～ (Radio Edit Ver.)
TTITLE1=MARMALADE JAM (EN-MUSUBI 06' at LIQUIDROOM)
TTITLE2=オキザリス　～輝く心～ (EN-MUSUBI 06' at LIQUIDROOM)
TTITLE3=BooBy StaR (EN-MUSUBI 06' at LIQUIDROOM)
EXTD=YEAR: 2007
EXTT0=
EXTT1=
EXTT2=
EXTT3=
PLAYORDER=
